<svg xmlns="http://www.w3.org/2000/svg" width="82.575" height="84.302" viewBox="1170.952 3459.839 82.575 84.302"><g data-name="Group 396"><path d="m795.228 220.515 22.276-36.43h-28.582l-22.276 36.43" fill-rule="evenodd" fill="url(&quot;#a&quot;)" transform="translate(436.023 3323.626)" data-name="Path 1018"/><path d="m1171.96 3498.44 20.043-32.79c2.198-3.594 6.264-5.81 10.669-5.81l30.833.514-6.424 6.3c-1.23 2.01-3.439 3.313-5.893 3.45-8.349.463-16.533 3.835-22.701 10.053-12.776 12.876-12.078 33.1 1.568 45.156 5.989 5.3 13.475 8.144 21.072 8.572 2.479.142 4.724 1.425 5.967 3.458l4.156 6.798h-28.578c-4.405 0-8.471-2.217-10.669-5.81l-20.042-32.782a6.769 6.769 0 0 1 0-7.109Z" fill="#003e6e" fill-rule="evenodd" data-name="Path 1019"/><path d="M1195.313 3501.895a27.868 26.316 0 1 1 0 .1z" fill="#003e6e" fill-rule="evenodd" data-name="Ellipse 37"/><path d="M1195.31 3501.996c0 14.534 12.476 26.316 27.869 26.316.729 0 1.448-.029 2.157-.084l-25.141-41.118c-3.087 4.227-4.885 9.358-4.885 14.886Z" fill="#dcdcdc" fill-rule="evenodd" data-name="Path 1020"/></g><defs><linearGradient x1=".415" y1="1.288" x2=".539" y2=".14" id="a"><stop stop-color="#939494" offset="0"/><stop stop-color="rgba(255,255,255,0 )" offset="9"/></linearGradient></defs></svg>